<?xml version="1.0" standalone="no"?>
<!DOCTYPE svg PUBLIC "-//W3C//DTD SVG 20010904//EN"
 "http://www.w3.org/TR/2001/REC-SVG-20010904/DTD/svg10.dtd">
<svg version="1.0" xmlns="http://www.w3.org/2000/svg"
 width="559.000000pt" height="446.000000pt" viewBox="0 0 559.000000 446.000000"
 preserveAspectRatio="xMidYMid meet">

<g transform="translate(0.000000,446.000000) scale(0.100000,-0.100000)"
fill="#000000" stroke="none">
<path d="M2000 2791 c0 -5 -10 -11 -22 -13 -19 -3 -19 -5 -6 -16 12 -10 20 -9
39 7 14 10 36 21 49 24 16 3 10 5 -17 6 -24 0 -43 -3 -43 -8z"/>
<path d="M2150 2780 c-6 -10 -9 -23 -8 -29 2 -5 -1 -10 -7 -11 -5 -1 -15 -6
-22 -12 -7 -5 -17 -7 -22 -4 -5 4 -18 -2 -28 -13 -10 -10 -34 -28 -53 -38 -24
-14 -35 -26 -34 -42 1 -17 -3 -20 -18 -15 -33 10 -16 -17 22 -38 24 -12 55
-18 100 -18 71 0 96 10 87 33 -3 8 3 23 14 33 10 9 19 30 19 45 0 15 6 30 13
32 7 4 3 8 -10 12 -13 4 -23 12 -23 17 0 5 4 7 9 4 10 -7 19 22 13 47 -5 23
-39 22 -52 -3z"/>
<path d="M2507 2770 c-25 -26 -26 -30 -10 -30 11 0 23 4 29 10 5 5 29 11 52
12 23 1 42 5 42 10 0 5 10 13 23 18 16 7 6 9 -43 9 -60 1 -67 -1 -93 -29z"/>
<path d="M2085 2770 c4 -6 11 -8 16 -5 14 9 11 15 -7 15 -8 0 -12 -5 -9 -10z"/>
<path d="M4112 2758 c-37 -37 15 -102 63 -80 36 17 34 57 -5 77 -35 18 -42 19
-58 3z m54 -25 c-7 -7 -26 7 -26 19 0 6 6 6 15 -2 9 -7 13 -15 11 -17z"/>
<path d="M1946 2734 c-5 -14 -4 -15 9 -4 17 14 19 20 6 20 -5 0 -12 -7 -15
-16z"/>
<path d="M1797 2702 c-25 -26 -37 -49 -19 -38 4 2 9 -5 9 -17 2 -16 0 -18 -6
-8 -7 10 -10 8 -16 -9 -7 -22 -8 -22 -28 10 l-20 32 -17 -21 c-8 -12 -29 -23
-45 -24 -34 -3 -34 -7 -8 -97 9 -30 22 -60 29 -65 11 -10 18 -43 15 -69 -1 -5
-10 3 -22 18 -23 30 -60 34 -84 10 -21 -22 -10 -32 12 -11 15 12 22 13 40 4
31 -17 59 -57 67 -94 8 -36 17 -41 36 -18 10 12 10 15 0 15 -8 0 -10 3 -7 6
11 11 38 -18 54 -57 8 -21 21 -40 29 -43 7 -3 11 -12 8 -21 -3 -8 -1 -15 5
-15 19 0 12 48 -8 62 -16 11 -19 25 -18 63 1 36 -2 49 -10 48 -15 -3 -17 33
-3 42 14 9 12 25 -2 21 -7 -1 -10 -1 -5 1 4 3 7 13 7 24 0 20 15 26 25 9 4 -7
12 -7 25 0 24 13 43 13 35 0 -4 -6 -1 -18 7 -27 11 -14 11 -16 -2 -9 -8 4 -4
-2 10 -13 14 -11 28 -21 33 -21 4 0 7 -8 8 -17 0 -12 2 -14 6 -5 3 8 -6 51
-20 95 -14 45 -29 98 -34 117 -7 26 -14 34 -27 32 -11 -2 -20 4 -23 17 -3 11
-12 21 -20 23 -12 3 -11 6 2 23 9 11 14 14 10 8 -3 -7 -2 -13 4 -13 18 0 22
20 8 40 -13 19 -14 19 -40 -8z m-57 -294 c0 -10 -4 -18 -9 -18 -5 0 -9 14 -9
31 1 32 18 20 18 -13z m7 -46 c1 -11 -5 -18 -18 -18 -22 0 -24 7 -7 24 17 17
24 15 25 -6z m53 -33 c0 -6 -4 -7 -10 -4 -5 3 -10 11 -10 16 0 6 5 7 10 4 6
-3 10 -11 10 -16z"/>
<path d="M2440 2708 c-12 -22 -12 -22 6 -6 10 10 15 20 12 24 -4 3 -12 -5 -18
-18z"/>
<path d="M1914 2681 c0 -11 4 -17 8 -15 4 3 8 12 8 20 0 8 -4 14 -8 14 -4 0
-8 -9 -8 -19z"/>
<path d="M1860 2660 c0 -5 5 -10 10 -10 6 0 10 5 10 10 0 6 -4 10 -10 10 -5 0
-10 -4 -10 -10z"/>
<path d="M1745 2640 c3 -5 8 -10 11 -10 2 0 4 5 4 10 0 6 -5 10 -11 10 -5 0
-7 -4 -4 -10z"/>
<path d="M4058 2459 c-21 -12 -24 -29 -4 -29 7 0 16 9 19 20 3 11 4 20 4 20
-1 0 -10 -5 -19 -11z"/>
<path d="M2135 2439 c-4 -6 -13 -8 -20 -5 -22 8 -77 -24 -71 -41 3 -8 2 -12
-3 -9 -5 3 -12 -1 -15 -10 -9 -25 -7 -72 4 -79 6 -4 8 -10 6 -14 -3 -4 1 -8 9
-8 8 0 16 6 19 14 3 7 -1 13 -9 13 -8 0 -15 7 -15 15 0 8 7 15 16 15 8 0 12
-4 9 -10 -3 -5 9 0 28 13 41 27 81 100 45 82 -7 -4 -5 0 5 8 9 8 17 17 17 21
0 10 -18 7 -25 -5z"/>
<path d="M1610 2401 c0 -6 4 -13 10 -16 6 -3 7 1 4 9 -7 18 -14 21 -14 7z"/>
<path d="M1820 2340 c0 -5 7 -7 15 -4 8 4 15 8 15 10 0 2 -7 4 -15 4 -8 0 -15
-4 -15 -10z"/>
<path d="M1930 2340 c-8 -5 -11 -10 -5 -10 5 0 4 -5 -3 -12 -18 -18 -15 -23
17 -24 21 -1 28 3 24 12 -3 8 -10 14 -15 14 -6 0 -8 7 -4 15 6 18 6 18 -14 5z"/>
<path d="M3895 2152 c-14 -10 -18 -42 -5 -42 6 0 10 -7 8 -16 -4 -23 47 -41
67 -24 18 15 20 61 3 78 -13 13 -57 16 -73 4z"/>
<path d="M2435 2070 c-3 -6 1 -7 9 -4 18 7 21 14 7 14 -6 0 -13 -4 -16 -10z"/>
<path d="M2600 1937 c0 -7 -10 -13 -21 -14 -27 -2 -33 -8 -26 -28 5 -11 22
-15 67 -15 33 0 60 3 60 6 0 12 -30 35 -39 29 -5 -3 -12 4 -16 15 -7 22 -25
27 -25 7z"/>
<path d="M2308 1903 c7 -3 16 -2 19 1 4 3 -2 6 -13 5 -11 0 -14 -3 -6 -6z"/>
<path d="M2500 1796 c0 -9 40 -13 46 -5 3 5 -6 9 -20 9 -14 0 -26 -2 -26 -4z"/>
<path d="M1954 1689 c-3 -6 0 -18 9 -26 13 -13 14 -12 10 11 -6 29 -9 31 -19
15z"/>
<path d="M3502 1300 c7 -11 16 -20 20 -20 5 0 3 9 -4 20 -7 11 -16 20 -20 20
-5 0 -3 -9 4 -20z"/>
<path d="M3465 1250 c3 -5 8 -10 11 -10 2 0 4 5 4 10 0 6 -5 10 -11 10 -5 0
-7 -4 -4 -10z"/>
<path d="M2605 1091 c-3 -5 8 -9 25 -9 21 1 27 4 18 9 -17 11 -35 11 -43 0z"/>
<path d="M2588 1058 c9 -9 15 -9 24 0 9 9 7 12 -12 12 -19 0 -21 -3 -12 -12z"/>
<path d="M3303 1063 c-18 -7 -16 -20 2 -20 8 0 15 6 15 14 0 7 -1 13 -2 12 -2
0 -9 -3 -15 -6z"/>
<path d="M2645 1040 c-3 -5 3 -10 14 -10 12 0 21 5 21 10 0 6 -6 10 -14 10 -8
0 -18 -4 -21 -10z"/>
<path d="M2646 1012 c-3 -5 1 -9 9 -9 8 0 15 4 15 9 0 4 -4 8 -9 8 -6 0 -12
-4 -15 -8z"/>
<path d="M3260 980 c0 -5 7 -7 15 -4 8 4 15 8 15 10 0 2 -7 4 -15 4 -8 0 -15
-4 -15 -10z"/>
</g>
</svg>
